<svg id="Layer_1" data-name="Layer 1" xmlns="http://www.w3.org/2000/svg" viewBox="0 0 28.52 28.52"><defs><style>.cls-1{fill:#b88b5a;}</style></defs><title>Mesa de trabajo 40</title><path class="cls-1" d="M3.55,28.52A3.55,3.55,0,0,1,1,22.46L16.4,7.1H12.9a3.55,3.55,0,0,1,0-7.1H25a3.23,3.23,0,0,1,.69.07l.26.07.41.13.28.14.33.19a2.89,2.89,0,0,1,.47.38s0,0,0,0a.93.93,0,0,1,.13.15,2,2,0,0,1,.34.41l.15.26c.09.17.13.26.17.35a2.06,2.06,0,0,1,.12.35,1.56,1.56,0,0,1,.08.31,3.43,3.43,0,0,1,.08.71v12a3.55,3.55,0,0,1-7.1,0v-3.5L6.06,27.48A3.56,3.56,0,0,1,3.55,28.52ZM12.9,2a1.55,1.55,0,0,0,0,3.1h5.92a1,1,0,0,1,.7,1.7L2.45,23.87a1.56,1.56,0,0,0,0,2.19,1.54,1.54,0,0,0,2.19,0L21.71,9a1,1,0,0,1,1.09-.21,1,1,0,0,1,.62.92v5.91a1.55,1.55,0,0,0,3.1,0V3.55a1.65,1.65,0,0,0,0-.31s0-.09,0-.11L26.4,3l-.07-.12,0-.09a1.31,1.31,0,0,0-.2-.26l0,0a2.59,2.59,0,0,0-.21-.18L25.7,2.2l-.14-.08-.16-.05-.11,0A1.27,1.27,0,0,0,25,2Z"/></svg>