<svg id="Layer_1" data-name="Layer 1" xmlns="http://www.w3.org/2000/svg" viewBox="0 0 30.77 30.84"><defs><style>.cls-1{fill:#b88b5a;}</style></defs><title>Mesa de trabajo 37</title><path class="cls-1" d="M3.08,0A3.09,3.09,0,0,0,0,3.08,3.09,3.09,0,0,0,2,6V24.88a3.07,3.07,0,1,0,4,3.91H24.8a3.07,3.07,0,1,0,3.92-3.92V6A3.07,3.07,0,1,0,24.8,2.09H6A3.09,3.09,0,0,0,3.08,0Zm0,2.05a1,1,0,1,1-1,1A1,1,0,0,1,3.08,2.05Zm24.61,0a1,1,0,1,1-1,1A1,1,0,0,1,27.69,2.09ZM6,4.15H24.8A3.11,3.11,0,0,0,26.66,6V24.87a3.11,3.11,0,0,0-1.86,1.86H6a3.09,3.09,0,0,0-1.9-1.87V6A3.14,3.14,0,0,0,6,4.15ZM8.19,8.27h0v5.06h2.06v-3h4.13l0,12.29H12.28v2.05l6.18,0V22.63H16.4l0-12.29H20.5v3h2.06V8.27ZM3.08,26.73a1,1,0,1,1-1,1A1,1,0,0,1,3.08,26.73Zm24.61,0a1,1,0,1,1-1,1A1,1,0,0,1,27.69,26.73Z"/></svg>