<svg id="Layer_1" data-name="Layer 1" xmlns="http://www.w3.org/2000/svg" viewBox="0 0 31.49 31.48"><defs><style>.cls-1{fill:#b88b5a;}</style></defs><title>Mesa de trabajo 33</title><path class="cls-1" d="M25.31.78a2.68,2.68,0,0,0-3.78,0L2.84,19.44a1.83,1.83,0,0,0-.48.87L0,30.4a.86.86,0,0,0,.24.82.9.9,0,0,0,.64.26l.2,0,10.1-2.34h0a1.75,1.75,0,0,0,.87-.48L30.71,10a2.68,2.68,0,0,0,0-3.78ZM3.8,22l5.72,5.72-3.07.71L3.09,25Zm3.11.6L22,7.52l2,2-15,15.05ZM5.65,21.3,4.58,20.22l15.07-15,1.06,1.06Zm-3,5.79L4.4,28.87l-2.33.54Zm8.64-.17-1.07-1.07L25.24,10.79l1.07,1.06ZM29.45,8.7l-1.89,1.89L20.9,3.93,22.79,2a.89.89,0,0,1,1.26,0l5.4,5.39A.92.92,0,0,1,29.45,8.7Z"/></svg>