<svg id="Layer_1" data-name="Layer 1" xmlns="http://www.w3.org/2000/svg" viewBox="0 0 24.82 23.71"><defs><style>.cls-1{fill:#b88b5a;}</style></defs><title>Mesa de trabajo 35</title><path class="cls-1" d="M23.76,6.12,19.88,1.56a4.46,4.46,0,0,0-6.27-.5l-12,10.26a4.46,4.46,0,0,0-.5,6.27L5,22.15a4.37,4.37,0,0,0,3,1.54l.37,0a4.41,4.41,0,0,0,2.87-1.06L23.26,12.39a4.47,4.47,0,0,0,.5-6.27Zm-13.85,15a2.44,2.44,0,0,1-3.44-.28L2.58,16.29a2.45,2.45,0,0,1,.28-3.45l1.78-1.52,7.06,8.29ZM22,10.87l-8.74,7.44L6.16,10l8.75-7.45a2.44,2.44,0,0,1,3.44.28l3.89,4.56A2.45,2.45,0,0,1,22,10.87Z"/></svg>