<svg id="Layer_1" data-name="Layer 1" xmlns="http://www.w3.org/2000/svg" viewBox="0 0 35.13 35.76"><defs><style>.cls-1{fill:#b88b5a;}</style></defs><title>Mesa de trabajo 36</title><path class="cls-1" d="M33.85,20.26l-13-13V1a1,1,0,0,0-2,0V7.73L4.94,21.62a1,1,0,0,0,0,1.42,1,1,0,0,0,.71.29A1,1,0,0,0,6.36,23l.93-.93L19.65,34.46a4.3,4.3,0,0,0,3.06,1.29,4,4,0,0,0,2.87-1.18L34,26.2A4.21,4.21,0,0,0,33.85,20.26ZM19.84,16a1.63,1.63,0,1,1-1.63,1.63A1.63,1.63,0,0,1,19.84,16Zm12.7,8.79-8.37,8.38a2.21,2.21,0,0,1-3.11-.11L8.72,20.71,18.84,10.56v3.59a3.63,3.63,0,1,0,2,0V10.08l11.6,11.6A2.2,2.2,0,0,1,32.54,24.78Z"/><path class="cls-1" d="M5.29,25a1,1,0,0,0-1.38,0C3.25,25.61,0,28.86,0,31.16a4.6,4.6,0,1,0,9.2,0C9.2,28.86,6,25.61,5.29,25ZM4.6,33.76A2.61,2.61,0,0,1,2,31.16c0-.89,1.37-2.71,2.6-4,1.23,1.32,2.6,3.14,2.6,4A2.6,2.6,0,0,1,4.6,33.76Z"/></svg>