<svg id="Layer_1" data-name="Layer 1" xmlns="http://www.w3.org/2000/svg" viewBox="0 0 38.04 12.2"><defs><style>.cls-1{fill:#b88b5a;}</style></defs><title>Mesa de trabajo 41</title><path class="cls-1" d="M19,12.2a6.1,6.1,0,1,1,6.1-6.1A6.1,6.1,0,0,1,19,12.2ZM19,2a4.1,4.1,0,1,0,4.1,4.09A4.09,4.09,0,0,0,19,2Z"/><path class="cls-1" d="M37,11.77H25.71a1,1,0,0,1-.88-.51,1,1,0,0,1,0-1L30.52.92a1,1,0,0,1,1.71,0l5.67,9.33a1,1,0,0,1,0,1A1,1,0,0,1,37,11.77Zm-9.56-2h7.78L31.37,3.36Z"/><path class="cls-1" d="M10.67,11.67H1a1,1,0,0,1-1-1V1A1,1,0,0,1,1,0h9.67a1,1,0,0,1,1,1v9.67A1,1,0,0,1,10.67,11.67ZM2,9.67H9.67V2H2Z"/></svg>